PathFileType	4	(X/Y/Z)	C:\Users\chris\Desktop\Pose2Sim_Project\videos\pitch1_Sports2D\pitch1_Sports2D_px_person00.trc
DataRate	CameraRate	NumFrames	NumMarkers	Units	OrigDataRate	OrigDataStartFrame	OrigNumFrames
30.0	30.0	13	22	m	30.0	41	110
Frame#	Time	Hip			RHip			RKnee			RAnkle			RBigToe			RSmallToe			RHeel			LHip			LKnee			LAnkle			LBigToe			LSmallToe			LHeel			Neck			Head			Nose			RShoulder			RElbow			RWrist			LShoulder			LElbow			LWrist		
		X1	Y1	Z1	X2	Y2	Z2	X3	Y3	Z3	X4	Y4	Z4	X5	Y5	Z5	X6	Y6	Z6	X7	Y7	Z7	X8	Y8	Z8	X9	Y9	Z9	X10	Y10	Z10	X11	Y11	Z11	X12	Y12	Z12	X13	Y13	Z13	X14	Y14	Z14	X15	Y15	Z15	X16	Y16	Z16	X17	Y17	Z17	X18	Y18	Z18	X19	Y19	Z19	X20	Y20	Z20	X21	Y21	Z21	X22	Y22	Z22
41	1.3666666666666667	386.53195496928487	343.83890779460415	0.0	350.17102601018917	349.3371656797617	0.0	356.03888529174964	507.22754270248913	0.0	364.9957480667879	633.5610373039347	0.0	374.1295268401893	683.3643356204313	0.0	351.7947022959781	678.4318393207787	0.0	371.7411560021286	648.6651165459502	0.0	424.29933291708284	347.06344857990666	0.0	425.2239639356067	505.4961024236971	0.0	450.2265812535567	613.5644108177441	0.0	443.99846281591476	666.7542801028493	0.0	466.5404785755985	659.5123534933483	0.0	452.3455437567843	624.8099109450527	0.0	379.2179891483572	139.5443779095816	0.0	386.4259763293161	43.82159963197164	0.0	416.77048610937385	96.0429663015218	0.0	303.52624494630913	180.0624516177606	0.0	288.85161040507154	285.92842982423673	0.0	331.12982896459096	262.9380638981381	0.0	447.53008148619966	174.67833274584484	0.0	474.7658931325774	272.46886071556446	0.0	428.61523480801367	276.6423699516386	0.0
42	1.4	386.28471550598067	340.7353458047654	0.0	349.73843962867534	345.7172544799454	0.0	356.26610294570924	505.8176344754743	0.0	365.99211909141025	634.0306190336381	0.0	373.9952679474054	684.7917385975396	0.0	352.55531005378816	679.6740016560088	0.0	372.7124600427141	650.488985227913	0.0	424.6069008269251	343.25052451630626	0.0	415.74517931430233	497.5943494600514	0.0	434.77564642144887	612.5320836492084	0.0	430.57270389818694	666.4061714278928	0.0	451.65105008526496	659.0329975351259	0.0	435.06075834660044	624.7439861188376	0.0	378.34060788512414	139.26681511421742	0.0	385.59464887875095	43.138349183671735	0.0	415.33318286489606	95.76233188536767	0.0	304.16704259371386	178.1950533618211	0.0	287.3769785905581	283.58065786301734	0.0	327.0406696357868	255.9386154910951	0.0	445.6903692095924	173.00568782261516	0.0	473.72423852914426	272.3649918654757	0.0	428.0986517424798	268.7631281963143	0.0
43	1.4333333333333333	386.8183037062173	337.23143615725536	0.0	350.1923012662602	341.911740055246	0.0	355.77914701321646	503.98992953566506	0.0	365.9742433476765	634.4543476627738	0.0	372.0241477383762	685.8700677786964	0.0	351.97162948493286	680.7172732702091	0.0	372.7721130439678	652.0443955279623	0.0	425.4553758839675	339.0061709551906	0.0	405.9949854286059	486.5334462626679	0.0	415.90602018543274	611.2855396386298	0.0	409.6629238253783	664.8616029200742	0.0	430.0441951286176	658.5031184309076	0.0	415.3349265692384	626.2766633347488	0.0	377.7126452802165	139.43661160698892	0.0	385.6090408775331	42.684608232388285	0.0	414.82382857987085	96.35188652579816	0.0	305.22745694367575	176.2543516948507	0.0	285.26939040185954	281.07139217302574	0.0	322.1968860572744	251.2478806620913	0.0	443.83000556766535	171.96272508400114	0.0	472.523353631223	272.9780908236827	0.0	427.9205335431459	261.27407847403936	0.0
44	1.4666666666666666	387.7636503657832	332.757287558877	0.0	350.8868028971185	338.4013783191159	0.0	354.90474554197374	500.0967018993167	0.0	365.7833451715605	633.6748177765649	0.0	369.922462470177	685.3123382823272	0.0	351.6353129424567	680.3088811105721	0.0	373.03454483216706	652.4968054062902	0.0	426.40686760521913	333.8956340216109	0.0	396.5460630391403	472.6161668923855	0.0	394.4903886268478	606.7132490315844	0.0	381.9425748628622	658.4578895927389	0.0	402.82302802261086	654.3569712433359	0.0	393.42346027120647	624.8851443250168	0.0	377.41679140711136	140.0993445298271	0.0	385.59974684235914	42.95027148447143	0.0	414.60252421216956	97.0759108712428	0.0	306.4776349001917	174.5233425697609	0.0	282.71273303128316	278.3031732325166	0.0	318.20991754283574	248.54033886582033	0.0	442.25440239877804	171.28932362268333	0.0	471.8593651331669	273.2250581151167	0.0	426.4310128012065	252.9889069211976	0.0
45	1.5	388.6425753993418	328.1940643033586	0.0	351.92142969181185	336.23874110921497	0.0	355.46022282250317	494.042014265781	0.0	366.7044012347925	632.2197230740387	0.0	369.71005080910606	684.4895011853765	0.0	352.9822627287384	679.6324334316547	0.0	374.08458942242186	652.4364751711281	0.0	428.1822597142562	329.1556769561186	0.0	386.6526026142265	455.4904817156609	0.0	372.12244631241026	594.8831241343256	0.0	351.4268664625175	643.1672403605804	0.0	372.52118723796445	642.6831561974475	0.0	370.1604868787304	615.0109871647553	0.0	377.63463106516804	141.13488655421042	0.0	385.31219598375566	43.55800940788603	0.0	414.51668875582806	96.70319691425061	0.0	307.7421161406105	173.23966413057857	0.0	280.0440700287268	274.73506839463295	0.0	315.49711940621626	242.87758862319058	0.0	441.18385847032835	170.48855764333146	0.0	472.0383364160383	271.67903202638973	0.0	424.473553943665	243.5378136757769	0.0
46	1.5333333333333332	390.1323566198003	325.030011166508	0.0	354.52655504092695	335.64699264975593	0.0	358.3085783718267	489.5558944012803	0.0	368.51201403396476	631.5681736795715	0.0	370.86976870281353	684.1702895033875	0.0	354.7982988385689	679.8941824676604	0.0	374.53975513341646	652.4160968999425	0.0	432.01414458773235	326.63867577566225	0.0	376.1315898906578	433.385511982397	0.0	350.7863141820794	573.5322565434477	0.0	323.19743593286825	618.3115119135687	0.0	343.13757212491896	621.8445987928701	0.0	347.85989483658204	594.3533955959822	0.0	378.27294936156494	142.6829030056614	0.0	384.8377774056385	43.77117874032508	0.0	414.7433967090644	95.64672592127127	0.0	308.8821870221393	172.33241862295444	0.0	277.51196732859574	270.4443831131211	0.0	312.0450102184482	230.6265836999493	0.0	440.8089762944902	169.3387541640214	0.0	472.02891205030755	268.962284766667	0.0	422.74563075736916	233.21460200891266	0.0
47	1.5666666666666667	393.1001846310525	322.54057289104685	0.0	359.22209812917106	334.5742656826105	0.0	361.91461689497476	489.68411704541774	0.0	369.7009474017684	631.3698265878717	0.0	371.0768810719254	682.8710399137151	0.0	355.2695627153457	680.0348749668648	0.0	373.26458500801186	651.8061691488961	0.0	437.44015321718587	325.6525568628443	0.0	366.46926523368285	405.6245410866444	0.0	332.33267538634243	543.6502182415254	0.0	297.9638949887132	585.6043978309741	0.0	317.4436140408598	592.6674037265404	0.0	328.60896089976995	565.315182241218	0.0	379.1844597688425	144.62489544011575	0.0	384.260825333405	43.523116016233146	0.0	415.1156165707082	95.11601610862536	0.0	310.50222038376444	171.69076070200452	0.0	275.2175862893677	265.69401713746606	0.0	307.4197676729865	214.73195573145102	0.0	441.149137847085	167.80938234172393	0.0	470.8049387984509	266.4489641829453	0.0	421.31891646759414	222.3806142535665	0.0
48	1.6	396.66656261019	318.823386868464	0.0	363.8512682487908	330.89874089069144	0.0	364.44600085598216	491.9554130949702	0.0	369.65591482619055	631.0360911582469	0.0	369.96862815945246	680.7460793613411	0.0	354.8859116318249	679.668689037033	0.0	371.49521002110316	650.6089505141135	0.0	442.14654345256673	324.320291029854	0.0	358.68373118867214	375.5049760448876	0.0	315.99541374555207	509.3302155335786	0.0	272.19161520540626	542.9558355128135	0.0	293.5669235049868	554.6684471984846	0.0	310.29699727220884	533.5046577879094	0.0	380.5814461977752	145.9571044896646	0.0	384.0011975707592	43.33690749504018	0.0	415.3715058741836	95.0312485510745	0.0	313.5886906174588	171.46555018503196	0.0	273.31764522701417	260.6109810041172	0.0	304.38844150981004	200.73219086823343	0.0	442.2828820600375	165.9835393499778	0.0	468.54309841100076	264.1994869878607	0.0	420.16576295284216	211.69320138840166	0.0
49	1.6333333333333333	399.5513598182805	315.6739953219644	0.0	365.7503989922013	327.09320365127076	0.0	365.47381118072076	493.13044190394953	0.0	369.21381254806874	631.2274852205318	0.0	369.04362180837705	679.6955932484049	0.0	354.89573190152475	679.6806716667268	0.0	371.1866191564972	649.5679731681374	0.0	444.81901940899064	323.64165003665653	0.0	352.590744998518	345.4112080325704	0.0	299.6743942854014	474.70034552694244	0.0	246.4541434961826	488.07215640691993	0.0	269.58182002376435	505.9852738132262	0.0	289.51917000205054	503.6846986004395	0.0	382.5431299502626	145.86556627571952	0.0	384.89884987573816	43.349811706382326	0.0	415.8845518544697	94.83549473824402	0.0	317.70589742569854	171.4048003860015	0.0	272.32146151210225	255.44723446566303	0.0	304.7968661817382	191.11447733957877	0.0	444.361024308809	164.21162299603498	0.0	466.04552355537294	262.00984314951285	0.0	418.9356758981666	202.18629680775842	0.0
50	1.6666666666666667	402.4320917884041	317.5793076660417	0.0	365.9062556034274	328.4805855671252	0.0	365.29954256656765	494.0659768451012	0.0	369.17998322671053	631.7205522277159	0.0	368.933073222986	679.5589654674302	0.0	355.0645286847421	679.5900697063903	0.0	372.83012413572004	648.5343697052265	0.0	446.52140509425874	325.7066131132892	0.0	349.12836206062883	312.1229339515776	0.0	285.5787980300959	440.3842196792514	0.0	227.73141432612616	427.8746865062745	0.0	248.6388240493324	449.49966920250966	0.0	270.2567198935181	474.2832928254426	0.0	384.22734954667794	145.57457804492233	0.0	386.5793314628287	43.714832296677585	0.0	416.2208702592414	95.4979224476213	0.0	320.781207275509	171.16848895385831	0.0	272.65045665597677	250.75172405853607	0.0	307.3608764338094	184.52066695007443	0.0	446.65948194347413	163.07826311452968	0.0	464.0959599691604	260.39723027567754	0.0	417.2299194752844	194.34403901078386	0.0
51	1.7	406.26615476108566	324.2841510174088	0.0	367.28086724946115	335.0066531253975	0.0	364.64463939831876	495.2846292750023	0.0	369.48064132281075	631.5217190428176	0.0	368.85170698527827	678.8703622942105	0.0	354.5566186235282	678.5771283805639	0.0	375.6005427045623	647.7016009378397	0.0	448.34684631227293	329.14111270197463	0.0	350.02124288405236	274.8207481595067	0.0	278.2475031632416	406.32827336550685	0.0	219.72198162610604	374.95457246230393	0.0	234.18819229228745	394.7587215231133	0.0	260.29386024041935	441.76504365109423	0.0	384.37462832068246	147.68118802220226	0.0	385.898115673001	46.74209873774834	0.0	412.4687864332906	99.32692077443079	0.0	321.69096927734387	171.44757606306214	0.0	273.84357833096954	247.16326334323517	0.0	310.3505979397657	178.2496665421119	0.0	447.7600913727159	162.82433648252456	0.0	463.18565265949405	259.207932646387	0.0	415.1077012211507	188.06463497608203	0.0
52	1.7333333333333334	409.9684982182117	330.3675676626634	0.0	370.003758619	340.6754413456487	0.0	364.3449888673321	494.94286331168354	0.0	369.6562770183379	631.0268824545061	0.0	367.69800121522246	678.0041154136595	0.0	353.3044443298958	677.8326035219864	0.0	378.2235809699459	648.2437429667439	0.0	449.76650320741345	330.79125414332293	0.0	354.67604556471167	241.00434965041168	0.0	277.28273506674	376.35689836433426	0.0	217.76061141495566	336.46362020954535	0.0	225.68258622987167	351.43648391074055	0.0	259.7350131885037	410.3919927965891	0.0	382.8861026480761	153.0068694903395	0.0	379.94168583730044	55.3137983567515	0.0	400.3702519298173	107.53580848862386	0.0	321.6917117438295	172.77885319706115	0.0	275.1375933384771	244.6372745380462	0.0	313.7039238703061	171.75044014691917	0.0	447.3810982873563	163.1582772802027	0.0	463.34631103701145	257.2417740952173	0.0	412.7898600331958	183.61987852714245	0.0
53	1.7666666666666666	412.2866072619242	332.7098664074527	0.0	372.32955862088113	341.9086029028055	0.0	364.4295473672643	493.17443123160535	0.0	369.47986239602324	630.9333127654149	0.0	365.70853139483785	678.1624302584112	0.0	352.1335354329508	678.5700092563563	0.0	379.6098380889744	649.8097174158945	0.0	450.30885181608755	329.9094246009945	0.0	360.1195252195027	218.08446105800488	0.0	278.9556713821976	355.6216177453056	0.0	216.62080000176678	312.8893331086145	0.0	221.57235892024812	324.33334071981477	0.0	263.23706120855974	388.4918247203917	0.0	381.38367108302566	159.52899901084018	0.0	370.703931575723	67.15772670529469	0.0	383.0870582000568	118.16427247052499	0.0	322.536331611117	174.09504443293724	0.0	276.5652717060644	242.81250875352043	0.0	317.8575011121112	167.38024027141876	0.0	446.91445146600836	163.78520695747227	0.0	464.31147499663393	254.23237339249226	0.0	410.655398641096	181.13437075486715	0.0
